<svg xmlns="http://www.w3.org/2000/svg" width="137" height="49.455" viewBox="0 0 137 49.455"><defs><style>.a,.b,.c{fill:#fff;}.b{fill-rule:evenodd;}.c{font-size:26px;font-family:HelveticaNeue-Bold, Helvetica Neue;font-weight:700;letter-spacing:0.17em;}</style></defs><g transform="translate(-30 -48.27)"><g transform="translate(30 48.27)"><path class="a" d="M184.772,312.587a13.634,13.634,0,0,1,5.028-.959,19.878,19.878,0,0,1,6.028.648c2.595.595,3.325.92,4.784.92a7.173,7.173,0,0,0,2.947-.811,11.711,11.711,0,0,1-7.488,2.514c-3.839,0-7.434-2.217-9.367-2.163-.378.011-1.257.135-1.257.135A16.133,16.133,0,0,1,192,316.98c-.378.271-.987.715-.987.715a12.743,12.743,0,0,0-3.46-3.391c-2.135-1.352-2.784-1.3-2.784-1.3s-.649-.054-2.785,1.3a12.743,12.743,0,0,0-3.46,3.391s-.608-.444-.987-.715a16.129,16.129,0,0,1,6.555-4.109s-.879-.124-1.257-.135c-1.933-.054-5.528,2.163-9.367,2.163a11.711,11.711,0,0,1-7.488-2.514,7.173,7.173,0,0,0,2.947.811c1.46,0,2.189-.325,4.784-.92a19.878,19.878,0,0,1,6.028-.648,13.644,13.644,0,0,1,5.028.959Z" transform="translate(-156.917 -268.24)"/><path class="b" d="M208.52,306.02a9.373,9.373,0,0,1,1.892.216c1.3.243,3.514,1.108,6,.081a11.5,11.5,0,0,0,5.92-4.947,7.692,7.692,0,0,1-3.163,1.784c-2.325.811-2.568.541-4.433,1.162s-3.622,1.054-3.622,1.054a6.882,6.882,0,0,0,2.351-1.784,15.089,15.089,0,0,0,1.7-3.622c.433-1.3,1.054-3,1.054-3a58.307,58.307,0,0,0-3.866,4.514c-.784,1.217-1.516,2.837-1.973,3.352a3.86,3.86,0,0,1-1.865,1.19Z" transform="translate(-171.772 -263.119)"/><path class="a" d="M218.738,300.787a17.373,17.373,0,0,0,2.541-.595,14.422,14.422,0,0,0,4.7-2.839,13.452,13.452,0,0,0,2.514-3.73,7.283,7.283,0,0,0,.676-2.163s-.351.432-1.189,1.378a43.121,43.121,0,0,1-3.7,3.19,29.162,29.162,0,0,0-2.919,2.73,2.643,2.643,0,0,1-1.19.919,15.753,15.753,0,0,0,2.135-3.757,14.771,14.771,0,0,0,.622-4.434c-.027-1.189-.054-2-.054-2a34.179,34.179,0,0,0-2.839,6.029,21.49,21.49,0,0,0-.567,3.676,4.454,4.454,0,0,1-.73,1.6Z" transform="translate(-175.34 -260.507)"/><path class="a" d="M226.456,291.472a11.6,11.6,0,0,1,1.324-1.379c.892-.811,2.757-1.838,3.812-3.487a10.333,10.333,0,0,0,1.568-4.136,10.011,10.011,0,0,0,.162-1.838,13.716,13.716,0,0,1-1.378,2.487c-1.074,1.51-2.006,2.284-2.6,3.136a30.818,30.818,0,0,0-1.784,2.946c0-.253.81-3.1.567-4.541a24.383,24.383,0,0,0-.757-3.109c-.216-.974-.351-1.784-.351-1.784a22.717,22.717,0,0,0-.892,4.893c-.027,2,.433,2.433.379,4.163s-.054,2.649-.054,2.649Z" transform="translate(-177.922 -257.113)"/><path class="a" d="M229.759,280.838a22.069,22.069,0,0,0,2.028-2.785,11.173,11.173,0,0,0,2-4.541,13.1,13.1,0,0,0,.308-3.028,8.487,8.487,0,0,0-.47-2.514,9.6,9.6,0,0,1-.378,2.082c-.351,1.244-1.19,2.162-1.812,4.055a23.307,23.307,0,0,0-.865,3.92,17.854,17.854,0,0,0-.973-3.893,33.685,33.685,0,0,0-2.135-3.7,23.69,23.69,0,0,0,.513,4.866c.513,1.946,1.46,2.541,1.7,3.7a4.606,4.606,0,0,1,.081,1.838Z" transform="translate(-178.387 -252.993)"/><path class="a" d="M229.478,270.408s.135.216.433-1.082.946-1.892,1.027-3.027a10.906,10.906,0,0,0,.055-3.568,16,16,0,0,0-1.487-4.109,5.153,5.153,0,0,0-.864-1.244,15.708,15.708,0,0,1,.377,1.7,19.146,19.146,0,0,1,.081,2.108c-.01.789-.235,1.525-.3,2.379a16.9,16.9,0,0,0,.487,3.947,10.123,10.123,0,0,0-1.811-3.19c-1.108-1.135-3.3-3.189-3.3-3.189a36.644,36.644,0,0,0,2.054,4.622c.784,1.216,2.243,2.568,2.568,3.136a12.944,12.944,0,0,1,.676,1.514Z" transform="translate(-177.241 -249.294)"/><path class="a" d="M226.587,261.586s.054-1.082.108-1.919a10.121,10.121,0,0,0-.567-4.6,10.457,10.457,0,0,0-2.379-3.135c-.405-.46-1.108-.946-.3.486a14.831,14.831,0,0,1,1.162,3.839c.351,1.162.892,3.081.892,3.081a13.138,13.138,0,0,0-2.054-2.514c-.92-.73-1.7-.946-2.352-1.541s-1.406-1.46-1.406-1.46a12.086,12.086,0,0,0,1.432,2.92,11.816,11.816,0,0,0,2.46,2.351c.568.405,1.344.946,1.649,1.19a17.353,17.353,0,0,1,1.352,1.3Z" transform="translate(-175.674 -247.23)"/><path class="a" d="M223.324,255.967a6.157,6.157,0,0,0-1.568-3.568,16.843,16.843,0,0,0-3.974-2.623,17.015,17.015,0,0,0,1.919,3.109,13.142,13.142,0,0,0,2.6,2.406c.513.325,1.027.676,1.027.676Z" transform="translate(-175.007 -246.639)"/><path class="b" d="M173.774,306.02a9.369,9.369,0,0,0-1.892.216c-1.3.243-3.515,1.108-6,.081a11.5,11.5,0,0,1-5.92-4.947,7.692,7.692,0,0,0,3.163,1.784c2.325.811,2.568.541,4.433,1.162s3.622,1.054,3.622,1.054a6.882,6.882,0,0,1-2.351-1.784,15.088,15.088,0,0,1-1.7-3.622c-.433-1.3-1.054-3-1.054-3a58.3,58.3,0,0,1,3.866,4.514c.784,1.217,1.515,2.837,1.973,3.352a3.86,3.86,0,0,0,1.865,1.19Z" transform="translate(-154.813 -263.119)"/><path class="a" d="M165.369,300.787a17.373,17.373,0,0,1-2.541-.595,14.422,14.422,0,0,1-4.7-2.839,13.452,13.452,0,0,1-2.514-3.73,7.261,7.261,0,0,1-.676-2.163s.351.432,1.189,1.378a43.121,43.121,0,0,0,3.7,3.19,29.163,29.163,0,0,1,2.919,2.73,2.643,2.643,0,0,0,1.19.919,15.77,15.77,0,0,1-2.136-3.757,14.789,14.789,0,0,1-.622-4.434c.027-1.189.054-2,.054-2a34.179,34.179,0,0,1,2.839,6.029,21.487,21.487,0,0,1,.567,3.676,4.454,4.454,0,0,0,.73,1.6Z" transform="translate(-153.058 -260.507)"/><path class="a" d="M159.391,291.472a11.6,11.6,0,0,0-1.324-1.379c-.892-.811-2.757-1.838-3.812-3.487a10.333,10.333,0,0,1-1.568-4.136,10.058,10.058,0,0,1-.163-1.838,13.747,13.747,0,0,0,1.379,2.487c1.074,1.51,2.006,2.284,2.6,3.136a30.818,30.818,0,0,1,1.784,2.946c0-.253-.81-3.1-.567-4.541a24.384,24.384,0,0,1,.757-3.109c.216-.974.351-1.784.351-1.784a22.717,22.717,0,0,1,.892,4.893c.027,2-.433,2.433-.379,4.163s.054,2.649.054,2.649Z" transform="translate(-152.216 -257.113)"/><path class="a" d="M156.388,280.838a22.067,22.067,0,0,1-2.028-2.785,11.182,11.182,0,0,1-2-4.541,13.125,13.125,0,0,1-.307-3.028,8.487,8.487,0,0,1,.47-2.514,9.6,9.6,0,0,0,.378,2.082c.351,1.244,1.19,2.162,1.811,4.055a23.271,23.271,0,0,1,.866,3.92,17.854,17.854,0,0,1,.973-3.893,33.685,33.685,0,0,1,2.135-3.7,23.69,23.69,0,0,1-.513,4.866c-.513,1.946-1.46,2.541-1.7,3.7a4.59,4.59,0,0,0-.081,1.838Z" transform="translate(-152.051 -252.993)"/><path class="a" d="M156.5,270.408s-.135.216-.433-1.082-.946-1.892-1.028-3.027a10.927,10.927,0,0,1-.054-3.568,16,16,0,0,1,1.487-4.109,5.153,5.153,0,0,1,.864-1.244,15.708,15.708,0,0,0-.377,1.7,19.149,19.149,0,0,0-.081,2.108c.01.789.235,1.525.3,2.379a16.9,16.9,0,0,1-.487,3.947,10.124,10.124,0,0,1,1.811-3.19c1.108-1.135,3.3-3.189,3.3-3.189a36.638,36.638,0,0,1-2.054,4.622c-.784,1.216-2.244,2.568-2.568,3.136a12.945,12.945,0,0,0-.675,1.514Z" transform="translate(-153.028 -249.294)"/><path class="a" d="M159.339,261.586s-.054-1.082-.108-1.919a10.12,10.12,0,0,1,.567-4.6,10.469,10.469,0,0,1,2.379-3.135c.406-.46,1.108-.946.3.486a14.831,14.831,0,0,0-1.162,3.839c-.351,1.162-.892,3.081-.892,3.081a13.137,13.137,0,0,1,2.054-2.514c.92-.73,1.7-.946,2.352-1.541s1.406-1.46,1.406-1.46a12.112,12.112,0,0,1-1.432,2.92,11.815,11.815,0,0,1-2.46,2.351c-.568.405-1.344.946-1.649,1.19a17.353,17.353,0,0,0-1.352,1.3Z" transform="translate(-154.543 -247.23)"/><path class="a" d="M163.409,255.967a6.152,6.152,0,0,1,1.568-3.568,16.843,16.843,0,0,1,3.974-2.623,17.015,17.015,0,0,1-1.919,3.109,13.142,13.142,0,0,1-2.6,2.406c-.513.325-1.027.676-1.027.676Z" transform="translate(-156.018 -246.639)"/><path class="a" d="M195.934,282.346a1,1,0,1,1,1,1,1,1,0,0,1-1-1Z" transform="translate(-167.376 -257.664)"/><path class="a" d="M192.652,246.4a.73.73,0,0,1-1.142.2c-2.876,2.285-6.068,8.96-7.775,17.437-2.192,10.884-.916,19.636,2.329,20.13,3.276.5,7.7-7.293,9.885-18.155,2.192-10.885,1.11-19.267-2.136-19.761a2.3,2.3,0,0,0-1.162.144Zm-1.379-.334a.73.73,0,0,1,.73-.73.713.713,0,0,1,.084.005,2.908,2.908,0,0,1,1.809-.357c3.895.593,5,10.372,2.865,20.977-2.14,10.629-6.911,19.312-10.775,18.725-3.894-.593-4.9-10.143-2.761-20.748,1.671-8.3,4.878-15.381,8.051-17.81,0-.021,0-.042,0-.062Z" transform="translate(-162.554 -244.956)"/><path class="a" d="M182.544,262.2a.622.622,0,0,1-.279.9,36.61,36.61,0,0,0,3.968,12.076c3.757,7.329,7.952,10.779,9.471,9.052,1.688-1.918.343-9.174-3.324-16.327-3.757-7.328-7.831-10.68-9.35-8.954-.539.613-.549,1.728-.487,3.252Zm-1.149.33a.621.621,0,0,1,.094-.329,5.941,5.941,0,0,1,.961-3.834c2.132-2.423,6.869,2.419,10.394,9.3,3.616,7.054,5.214,14.679,3.251,16.909-2.132,2.423-6.8-2.28-10.325-9.159a36.9,36.9,0,0,1-4.03-12.328.622.622,0,0,1-.344-.557Z" transform="translate(-162.299 -249.419)"/><path class="a" d="M180.608,281.432a.623.623,0,0,1-.882.312c-5.455.047-9.913-1.322-10.265-3.489-.485-2.982,6.563-6.24,14.914-7.527s15.971-.3,16.455,2.678-6.452,6.214-14.8,7.5a47.367,47.367,0,0,1-5.418.525Zm-.888-.769a.621.621,0,0,1,.862.251,46.767,46.767,0,0,0,5.366-.523c8.629-1.33,14.752-4.547,14.368-6.9s-7.237-3.576-15.862-2.246-14.525,4.5-14.141,6.85c.281,1.728,4.029,2.623,9.408,2.57Z" transform="translate(-158.123 -253.763)"/><path class="a" d="M198.266,279.366a.622.622,0,0,1,.5.926c.049,1.317-1.32,2.092-2.907,2.019a19.932,19.932,0,0,1-7.019-2.362c-5.524-2.758-10.481-7.1-10.924-9.778-.255-1.541.962-2.155,2.668-2.078a19,19,0,0,1,6.97,2.224c5.047,2.52,9.614,6.363,10.709,9.049Zm-.662.62a.617.617,0,0,1,.181-.438c-1-2.449-5.374-6.225-10.461-8.765a18.532,18.532,0,0,0-6.762-2.17c-1.648-.075-2.295.482-2.13,1.472.4,2.385,5.094,6.627,10.643,9.4a16.85,16.85,0,0,0,6.583,1.977c1.538.07,2.095-.273,2.041-1.142a.618.618,0,0,1-.1-.331Z" transform="translate(-161.073 -253.034)"/></g><text class="c" transform="translate(93 82)"><tspan x="0" y="0">IAEA</tspan></text></g></svg>