<svg xmlns="http://www.w3.org/2000/svg" width="28" height="33" viewBox="0 0 28 33"><defs><style>.a{fill:#007bff;}.b{fill:#fff;}</style></defs><g transform="translate(-941.291 -683.284)"><path class="a" d="M968.781,690.051l-7.139-6.316a1.872,1.872,0,0,0-1.239-.451h-.445v8.25h9.333v-.393A1.458,1.458,0,0,0,968.781,690.051Z"/><path class="a" d="M957.624,692.049v-8.765H943.041a1.653,1.653,0,0,0-1.75,1.547v29.906a1.654,1.654,0,0,0,1.75,1.547h24.5a1.654,1.654,0,0,0,1.75-1.547V693.6h-9.917A1.663,1.663,0,0,1,957.624,692.049Z"/><path class="b" d="M348.767,300.441q-2.25-1.832-4.508-3.655c-.12-.1-.124-.155-.045-.279a6.6,6.6,0,0,0,.96-4.942,6.682,6.682,0,0,0-6.575-5.379,6.8,6.8,0,0,0-1.389.147,6.691,6.691,0,1,0,4.674,12.376c.144-.082.2-.056.3.059q1.866,2.283,3.742,4.558a2.018,2.018,0,0,0,3.545-.837A1.905,1.905,0,0,0,348.767,300.441ZM338.6,296.816a3.939,3.939,0,1,1,3.94-3.938A3.931,3.931,0,0,1,338.6,296.816Z" transform="translate(615.167 409.448)"/></g></svg>