<svg xmlns="http://www.w3.org/2000/svg" width="28" height="33" viewBox="0 0 28 33"><defs><style>.a{fill:#007bff;}</style></defs><g transform="translate(-941.291 -683.284)"><path class="a" d="M968.781,690.051l-7.139-6.316a1.872,1.872,0,0,0-1.239-.451h-.445v8.25h9.333v-.393A1.458,1.458,0,0,0,968.781,690.051Z"/><path class="a" d="M957.624,692.049v-8.765H943.041a1.653,1.653,0,0,0-1.75,1.547v29.906a1.654,1.654,0,0,0,1.75,1.547h24.5a1.654,1.654,0,0,0,1.75-1.547V693.6h-9.917A1.663,1.663,0,0,1,957.624,692.049Zm4.778,6.3a1.264,1.264,0,0,1,.2,1.777l-8.047,10.118a1.264,1.264,0,0,1-.99.478h-.027a1.263,1.263,0,0,1-.995-.521l-4.6-6.323a1.265,1.265,0,0,1,2.045-1.489l3.622,4.979,7.014-8.816A1.263,1.263,0,0,1,962.4,698.351Z"/></g></svg>