<svg xmlns="http://www.w3.org/2000/svg" width="28" height="33" viewBox="0 0 28 33"><defs><style>.a{fill:#007bff;}</style></defs><g transform="translate(-1146 -685)"><path class="a" d="M922.189,690.051l-7.139-6.316a1.872,1.872,0,0,0-1.239-.451h-.445v8.25H922.7v-.393A1.458,1.458,0,0,0,922.189,690.051Z" transform="translate(251.301 1.716)"/><path class="a" d="M912.783,693.6a1.662,1.662,0,0,1-1.75-1.547v-8.765H896.449a1.653,1.653,0,0,0-1.75,1.547v29.906a1.654,1.654,0,0,0,1.75,1.547h24.5a1.654,1.654,0,0,0,1.75-1.547V693.6Zm3.237,10.886-6.55,6.616a.8.8,0,0,1-1.143,0l-6.554-6.616a.82.82,0,0,1,0-1.153l.749-.756a.8.8,0,0,1,1.156.014l3.87,4.1v-9.78a.811.811,0,0,1,.809-.817h1.079a.811.811,0,0,1,.809.817v9.78l3.87-4.1a.8.8,0,0,1,1.156-.014l.749.756A.818.818,0,0,1,916.02,704.482Z" transform="translate(251.301 1.716)"/></g></svg>