<svg xmlns="http://www.w3.org/2000/svg" width="35.478" height="34.203" viewBox="0 0 35.478 34.203"><defs><style>.a{fill:#007bff;}.b{fill:#fefefe;}</style></defs><g transform="translate(-37.503 -221.349)"><path class="a" d="M37.508,238.444q0-7.8,0-15.593a1.436,1.436,0,0,1,1.15-1.469,1.951,1.951,0,0,1,.374-.029q7.907,0,15.814,0c.139,0,.175.033.175.174q-.007,3.992,0,7.984c0,.515.2.713.711.713q3.967,0,7.934,0c.166,0,.2.045.2.2q-.007,5.367,0,10.735c0,.17-.037.218-.212.213a12.275,12.275,0,0,0-6.6,1.84,17.806,17.806,0,0,0-4.063,3.218,1.7,1.7,0,0,0-.032,2.476,16.951,16.951,0,0,0,6.767,4.453,10.973,10.973,0,0,0,3.921.589c.173-.005.229.029.224.216a1.393,1.393,0,0,1-1.472,1.395q-5.006,0-10.011,0H39.051a1.474,1.474,0,0,1-1.407-.806,1.566,1.566,0,0,1-.136-.764q0-6.144,0-12.289Q37.508,240.069,37.508,238.444Z" transform="translate(0 0)"/><path class="a" d="M253.423,504.491a10.384,10.384,0,0,1-4.473-1.054,16.2,16.2,0,0,1-4.969-3.635.583.583,0,0,1-.005-.894,15.477,15.477,0,0,1,6.279-4.159,9.988,9.988,0,0,1,8.387.894,20.021,20.021,0,0,1,3.565,2.636c.238.213.476.425.705.646a.534.534,0,0,1,0,.8,34.934,34.934,0,0,1-2.862,2.428,12.822,12.822,0,0,1-3.9,1.948A9.778,9.778,0,0,1,253.423,504.491Z" transform="translate(-190.112 -251.584)"/><path class="a" d="M284.133,233.126h-7.15c-.1,0-.175.015-.175-.137q.008-3.579,0-7.158a.645.645,0,0,1,.013-.069Z" transform="translate(-220.7 -4.073)"/><path class="b" d="M98.036,403.16H89.584a.537.537,0,0,1-.547-.756.6.6,0,0,1,.588-.345q3.624.005,7.247,0h9.657a.554.554,0,0,1,.6.539.579.579,0,0,1-.6.559Z" transform="translate(-47.514 -166.686)"/><path class="b" d="M96.506,467.85h6.943a.51.51,0,0,1,.217.024.6.6,0,0,1,.325.6.527.527,0,0,1-.484.47q-1.8,0-3.6,0H89.547a.528.528,0,0,1-.326-.077.61.61,0,0,1-.219-.558.547.547,0,0,1,.413-.462c.083-.008.166,0,.249,0Z" transform="translate(-47.529 -227.369)"/><path class="b" d="M94.429,337.454H89.644a.632.632,0,0,1-.406-.093.522.522,0,0,1-.234-.521.57.57,0,0,1,.433-.465.646.646,0,0,1,.175-.019q4.838,0,9.675,0a.545.545,0,0,1,.592.6.535.535,0,0,1-.489.5c-.076.007-.153,0-.23,0Z" transform="translate(-47.529 -106.081)"/><path class="b" d="M93.781,533.591q2.091,0,4.181,0a.545.545,0,0,1,.559.744.513.513,0,0,1-.417.341,1.429,1.429,0,0,1-.211.013H89.654a.86.86,0,0,1-.314-.041.56.56,0,0,1-.343-.581.541.541,0,0,1,.5-.473c.088-.007.177,0,.266,0Z" transform="translate(-47.525 -288.01)"/><path class="b" d="M331.481,525.7a3.189,3.189,0,0,1-.008-6.377,3.189,3.189,0,0,1,.008,6.377Z" transform="translate(-268.236 -274.765)"/><path class="a" d="M346.739,535.681a2.061,2.061,0,1,1-4.121.017,2.043,2.043,0,0,1,2.044-2.1A2.079,2.079,0,0,1,346.739,535.681Z" transform="translate(-281.418 -287.995)"/></g></svg>