<svg xmlns="http://www.w3.org/2000/svg" width="28" height="27" viewBox="0 0 28 27"><defs><style>.a{fill:#007bff;}</style></defs><path class="a" d="M148.125,789h-15.75a.823.823,0,0,0-.619.293,1.076,1.076,0,0,0-.256.707v2a1.078,1.078,0,0,0,.256.707.823.823,0,0,0,.619.293h15.75a.823.823,0,0,0,.619-.293A1.078,1.078,0,0,0,149,792v-2a1.076,1.076,0,0,0-.256-.707A.823.823,0,0,0,148.125,789Zm0-10h-15.75a.823.823,0,0,0-.619.293,1.074,1.074,0,0,0-.256.707v2a1.078,1.078,0,0,0,.256.707.825.825,0,0,0,.619.292h15.75a.825.825,0,0,0,.619-.292A1.078,1.078,0,0,0,149,782v-2a1.074,1.074,0,0,0-.256-.707A.823.823,0,0,0,148.125,779Zm0,20h-15.75a.826.826,0,0,0-.619.293,1.078,1.078,0,0,0-.256.707v2a1.076,1.076,0,0,0,.256.707.822.822,0,0,0,.619.293h15.75a.822.822,0,0,0,.619-.293A1.076,1.076,0,0,0,149,802v-2a1.078,1.078,0,0,0-.256-.707A.826.826,0,0,0,148.125,799ZM124.5,798a3.022,3.022,0,0,0,0,6,2.469,2.469,0,0,0,1.856-.879,3.309,3.309,0,0,0,0-4.242A2.472,2.472,0,0,0,124.5,798Zm4.135-10.831a.666.666,0,0,0-.213-.163.585.585,0,0,0-.5,0,.667.667,0,0,0-.213.163l-3.482,3.983-1.242-1.382a.656.656,0,0,0-.213-.163.583.583,0,0,0-.5,0,.656.656,0,0,0-.213.163l-.859.981a.763.763,0,0,0-.143.244.852.852,0,0,0,0,.575.757.757,0,0,0,.143.243l2.6,2.969a.637.637,0,0,0,.963,0l.858-.981,3.949-4.513a.829.829,0,0,0,0-1.056Zm0-9.948a.669.669,0,0,0-.213-.164.585.585,0,0,0-.5,0,.669.669,0,0,0-.213.164l-3.482,3.956-1.242-1.382a.642.642,0,0,0-.213-.163.574.574,0,0,0-.5,0,.642.642,0,0,0-.213.163l-.859.982a.773.773,0,0,0-.143.244.852.852,0,0,0,0,.575.773.773,0,0,0,.143.244l2.6,2.962a.637.637,0,0,0,.963,0l.852-.976,3.949-4.512a.835.835,0,0,0,.005-1.062Z" transform="translate(-121 -777)"/></svg>