<svg xmlns="http://www.w3.org/2000/svg" width="31.5" height="29.25" viewBox="0 0 31.5 29.25"><defs><style>.a{fill:#007bff;}</style></defs><path class="a" d="M767.97,790.453V776.9a.923.923,0,0,0-1.033-.918,13.756,13.756,0,0,0-11.93,14.039,13.929,13.929,0,0,0,21.9,10.716.9.9,0,0,0,.091-1.376Zm16.675-3.7A13.838,13.838,0,0,0,771.723,774a.926.926,0,0,0-.973.926v12.783h12.958A.926.926,0,0,0,784.645,786.751Zm.917,3.7H771.821l9.151,9.028a.938.938,0,0,0,1.285.039,13.627,13.627,0,0,0,4.234-8.048A.92.92,0,0,0,785.562,790.453Z" transform="translate(-755 -774)"/></svg>